<mxfile host="app.diagrams.net" agent="Mozilla/5.0 (Macintosh; Intel Mac OS X 10_15_7) AppleWebKit/537.36 (KHTML, like Gecko) Chrome/131.0.0.0 Safari/537.36" version="26.0.4">
  <diagram id="07fea595-8f29-1299-0266-81d95cde20df" name="Page-1">
    <mxGraphModel dx="1434" dy="795" grid="1" gridSize="10" guides="1" tooltips="1" connect="1" arrows="1" fold="1" page="1" pageScale="1" pageWidth="1169" pageHeight="827" background="#ffffff" math="0" shadow="0">
      <root>
        <mxCell id="0" />
        <mxCell id="1" parent="0" />
        <mxCell id="me0bkUS0NusMc4ySYS9u-217" value="2024-01-01 全量包&amp;nbsp; 1.8G" style="whiteSpace=wrap;shadow=0;fontColor=#FFFFFF;fontFamily=Helvetica;fontStyle=0;html=1;fontSize=12;plain-purple;strokeColor=none;fillColor=light-dark(#ff8e52, #85abc7);gradientColor=none;spacing=6;verticalAlign=middle;align=left;" vertex="1" parent="1">
          <mxGeometry x="200" y="40" width="200" height="40" as="geometry" />
        </mxCell>
        <mxCell id="me0bkUS0NusMc4ySYS9u-219" value="2025-01-01 全量包&amp;nbsp; 2.0G" style="whiteSpace=wrap;shadow=0;fontColor=#FFFFFF;fontFamily=Helvetica;fontStyle=0;html=1;fontSize=12;plain-purple;strokeColor=none;fillColor=light-dark(#ff8e52, #85abc7);gradientColor=none;spacing=6;verticalAlign=middle;align=left;" vertex="1" parent="1">
          <mxGeometry x="200" y="200" width="200" height="40" as="geometry" />
        </mxCell>
        <mxCell id="me0bkUS0NusMc4ySYS9u-220" value="2024-01-08 增量包&amp;nbsp; 30MB" style="whiteSpace=wrap;shadow=0;fontColor=#FFFFFF;fontFamily=Helvetica;fontStyle=0;html=1;fontSize=12;plain-purple;strokeColor=none;fillColor=#2f5b7c;gradientColor=none;spacing=6;verticalAlign=middle;align=left;" vertex="1" parent="1">
          <mxGeometry x="200" y="80" width="200" height="40" as="geometry" />
        </mxCell>
        <mxCell id="me0bkUS0NusMc4ySYS9u-221" value="2024-01-13 增量包&amp;nbsp; 20MB" style="whiteSpace=wrap;shadow=0;fontColor=#FFFFFF;fontFamily=Helvetica;fontStyle=0;html=1;fontSize=12;plain-purple;strokeColor=none;fillColor=#2f5b7c;gradientColor=none;spacing=6;verticalAlign=middle;align=left;" vertex="1" parent="1">
          <mxGeometry x="200" y="120" width="200" height="40" as="geometry" />
        </mxCell>
        <mxCell id="me0bkUS0NusMc4ySYS9u-222" value="2024-02-01 增量包&lt;span style=&quot;white-space: pre;&quot;&gt;&#x9;&lt;/span&gt;50MB" style="whiteSpace=wrap;shadow=0;fontColor=#FFFFFF;fontFamily=Helvetica;fontStyle=0;html=1;fontSize=12;plain-purple;strokeColor=none;fillColor=#2f5b7c;gradientColor=none;spacing=6;verticalAlign=middle;align=left;" vertex="1" parent="1">
          <mxGeometry x="200" y="160" width="200" height="40" as="geometry" />
        </mxCell>
        <mxCell id="me0bkUS0NusMc4ySYS9u-224" value="2025-01-03 增量包&amp;nbsp; 40MB" style="whiteSpace=wrap;shadow=0;fontColor=#FFFFFF;fontFamily=Helvetica;fontStyle=0;html=1;fontSize=12;plain-purple;strokeColor=none;fillColor=#2f5b7c;gradientColor=none;spacing=6;verticalAlign=middle;align=left;" vertex="1" parent="1">
          <mxGeometry x="200" y="240" width="200" height="40" as="geometry" />
        </mxCell>
        <mxCell id="me0bkUS0NusMc4ySYS9u-225" value="2025-01-13 增量包&amp;nbsp; 70MB" style="whiteSpace=wrap;shadow=0;fontColor=#FFFFFF;fontFamily=Helvetica;fontStyle=0;html=1;fontSize=12;plain-purple;strokeColor=none;fillColor=#2f5b7c;gradientColor=none;spacing=6;verticalAlign=middle;align=left;" vertex="1" parent="1">
          <mxGeometry x="200" y="280" width="200" height="40" as="geometry" />
        </mxCell>
        <mxCell id="me0bkUS0NusMc4ySYS9u-226" value="2025-01-18 增量包&amp;nbsp; 80MB" style="whiteSpace=wrap;shadow=0;fontColor=#FFFFFF;fontFamily=Helvetica;fontStyle=0;html=1;fontSize=12;plain-purple;strokeColor=none;fillColor=#2f5b7c;gradientColor=none;spacing=6;verticalAlign=middle;align=left;" vertex="1" parent="1">
          <mxGeometry x="200" y="320" width="200" height="40" as="geometry" />
        </mxCell>
        <mxCell id="me0bkUS0NusMc4ySYS9u-229" value="&lt;font style=&quot;font-size: 16px;&quot;&gt;每次同步最新一次的全量包&lt;/font&gt;&lt;div&gt;&lt;font style=&quot;font-size: 16px;&quot;&gt;和之后的增量包&lt;/font&gt;&lt;/div&gt;" style="text;html=1;align=left;verticalAlign=middle;whiteSpace=wrap;rounded=0;" vertex="1" parent="1">
          <mxGeometry x="440" y="265" width="360" height="30" as="geometry" />
        </mxCell>
        <mxCell id="me0bkUS0NusMc4ySYS9u-231" value="每次根据数据变更&lt;div&gt;、定时&lt;/div&gt;&lt;div&gt;、&lt;/div&gt;&lt;div&gt;手动&lt;/div&gt;&lt;div&gt;等方式&lt;/div&gt;&lt;div&gt;打&lt;/div&gt;&lt;div&gt;增量包&lt;/div&gt;" style="text;html=1;align=center;verticalAlign=top;whiteSpace=wrap;rounded=0;fontSize=17;horizontal=1;" vertex="1" parent="1">
          <mxGeometry x="160" y="35" width="30" height="370" as="geometry" />
        </mxCell>
        <mxCell id="me0bkUS0NusMc4ySYS9u-233" value="手动打全量包" style="text;html=1;align=center;verticalAlign=top;whiteSpace=wrap;rounded=0;fontSize=17;" vertex="1" parent="1">
          <mxGeometry x="120" y="35" width="20" height="370" as="geometry" />
        </mxCell>
        <mxCell id="me0bkUS0NusMc4ySYS9u-235" value="" style="shape=curlyBracket;whiteSpace=wrap;html=1;rounded=1;flipH=1;labelPosition=right;verticalLabelPosition=middle;align=left;verticalAlign=middle;fontStyle=1" vertex="1" parent="1">
          <mxGeometry x="410" y="220" width="20" height="180" as="geometry" />
        </mxCell>
        <mxCell id="me0bkUS0NusMc4ySYS9u-236" value="。。。。。 增量包" style="whiteSpace=wrap;shadow=0;fontColor=#FFFFFF;fontFamily=Helvetica;fontStyle=0;html=1;fontSize=12;plain-purple;strokeColor=none;fillColor=#2f5b7c;gradientColor=none;spacing=6;verticalAlign=middle;align=left;" vertex="1" parent="1">
          <mxGeometry x="200" y="360" width="200" height="40" as="geometry" />
        </mxCell>
      </root>
    </mxGraphModel>
  </diagram>
</mxfile>
